<svg width="118" height="34" viewBox="0 0 118 34" fill="none" xmlns="http://www.w3.org/2000/svg">
<path d="M5.152 22H1.092V11.654H5.222C6.80867 11.654 8.04067 12.1207 8.918 13.054C9.814 13.978 10.262 15.238 10.262 16.834C10.262 18.4393 9.80933 19.6993 8.904 20.614C7.98933 21.538 6.73867 22 5.152 22ZM3.402 13.88V19.774H5.25C6.09 19.774 6.734 19.494 7.182 18.934C7.63933 18.3647 7.868 17.66 7.868 16.82C7.868 15.9707 7.63933 15.2707 7.182 14.72C6.734 14.16 6.09 13.88 5.25 13.88H3.402ZM19.2418 17.982C19.2418 18.206 19.2185 18.514 19.1718 18.906H13.5298C13.7911 19.8673 14.4865 20.348 15.6158 20.348C16.4745 20.348 17.2725 20.1007 18.0098 19.606L18.8778 21.104C17.9445 21.8133 16.8245 22.168 15.5178 22.168C14.1645 22.168 13.1238 21.7807 12.3958 21.006C11.6771 20.2313 11.3178 19.2793 11.3178 18.15C11.3178 17.002 11.6911 16.0453 12.4378 15.28C13.1751 14.5147 14.1505 14.132 15.3638 14.132C16.4838 14.132 17.4125 14.4773 18.1498 15.168C18.8778 15.8587 19.2418 16.7967 19.2418 17.982ZM16.4978 16.288C16.1898 16.036 15.8118 15.91 15.3638 15.91C14.9158 15.91 14.5238 16.036 14.1878 16.288C13.8611 16.54 13.6371 16.89 13.5158 17.338H17.1278C17.0251 16.89 16.8151 16.54 16.4978 16.288ZM25.5421 19.816L26.1581 21.566C25.5048 21.986 24.7208 22.196 23.8061 22.196C21.9768 22.196 21.0621 21.1647 21.0621 19.102V16.148H19.8441V14.328H21.0761V11.612H23.2601V14.328H25.7241V16.148H23.2601V18.892C23.2601 19.76 23.6008 20.194 24.2821 20.194C24.6368 20.194 25.0568 20.068 25.5421 19.816ZM32.6939 15.14V14.328H34.7659V22H32.6939V21.216C32.0406 21.8693 31.2519 22.196 30.3279 22.196C29.2359 22.196 28.3306 21.8087 27.6119 21.034C26.9026 20.2593 26.5479 19.2887 26.5479 18.122C26.5479 16.9833 26.9073 16.0313 27.6259 15.266C28.3446 14.51 29.2453 14.132 30.3279 14.132C31.2519 14.132 32.0406 14.468 32.6939 15.14ZM28.7459 18.15C28.7459 18.7193 28.9279 19.2047 29.2919 19.606C29.6746 19.998 30.1459 20.194 30.7059 20.194C31.2753 20.194 31.7466 19.9933 32.1199 19.592C32.5026 19.1813 32.6939 18.7007 32.6939 18.15C32.6939 17.5993 32.5026 17.1233 32.1199 16.722C31.7373 16.33 31.2659 16.134 30.7059 16.134C30.1459 16.134 29.6746 16.33 29.2919 16.722C28.9279 17.114 28.7459 17.59 28.7459 18.15ZM40.0812 19.074L41.7332 14.328H44.1132L41.0752 22.21C40.6739 23.246 40.1979 24.0113 39.6472 24.506C39.0966 25.01 38.4199 25.262 37.6172 25.262C36.9919 25.262 36.4739 25.1267 36.0632 24.856L36.4692 23.036C36.7959 23.2133 37.1272 23.302 37.4632 23.302C38.0792 23.302 38.5739 22.91 38.9472 22.126L39.0452 21.902L35.6992 14.328H38.2332L40.0812 19.074ZM47.2528 11.346V22H45.0548V11.346H47.2528ZM54.7057 15.14V14.328H56.7777V22H54.7057V21.216C54.0523 21.8693 53.2637 22.196 52.3397 22.196C51.2477 22.196 50.3423 21.8087 49.6237 21.034C48.9143 20.2593 48.5597 19.2887 48.5597 18.122C48.5597 16.9833 48.919 16.0313 49.6377 15.266C50.3563 14.51 51.257 14.132 52.3397 14.132C53.2637 14.132 54.0523 14.468 54.7057 15.14ZM50.7577 18.15C50.7577 18.7193 50.9397 19.2047 51.3037 19.606C51.6863 19.998 52.1577 20.194 52.7177 20.194C53.287 20.194 53.7583 19.9933 54.1317 19.592C54.5143 19.1813 54.7057 18.7007 54.7057 18.15C54.7057 17.5993 54.5143 17.1233 54.1317 16.722C53.749 16.33 53.2777 16.134 52.7177 16.134C52.1577 16.134 51.6863 16.33 51.3037 16.722C50.9397 17.114 50.7577 17.59 50.7577 18.15ZM60.665 22H58.467V14.328H60.567V15.322C61.0616 14.5193 61.757 14.118 62.653 14.118C62.9516 14.118 63.269 14.1787 63.605 14.3L63.423 16.4C63.1056 16.288 62.7836 16.232 62.457 16.232C61.897 16.232 61.4583 16.4233 61.141 16.806C60.8236 17.1793 60.665 17.744 60.665 18.5V22Z" fill="#F15A29"/>
<rect x="84" width="34" height="34" rx="15" fill="#F15A29"/>
<path d="M96 17H106" stroke="white" stroke-width="2" stroke-linejoin="round"/>
<path d="M101 22L106 17L101 12" stroke="white" stroke-width="2" stroke-linejoin="round"/>
</svg>
